<?xml version="1.0" encoding="utf-8"?>
<!DOCTYPE svg
  PUBLIC '-//W3C//DTD SVG 1.0//EN'
  'http://www.w3.org/TR/2001/REC-SVG-20010904/DTD/svg10.dtd'>
<svg width="1000" height="430" preserveAspectRatio="xMinYMin meet" viewBox="0 0 1000 430" xmlns="http://www.w3.org/2000/svg" version="1.0" fill-rule="evenodd" xmlns:xlink="http://www.w3.org/1999/xlink">
	<title>...</title>
	<desc>...</desc>
	<clipPath id="clip">
		<rect x="0" y="0" width="1000" height="430"/>
	</clipPath>
	<g id="group" transform="scale(1,-1) translate(0,-430)" style="clip-path: url(#clip)">
		<g transform="">
			<rect x="0" y="0" width="1000" height="430" style="stroke: none; stroke-linecap: butt; stroke-width: 1; fill: rgb(14%,15%,17%); fill-rule: evenodd;"/>
			<rect x="0" y="388" width="1000" height="42" style="stroke: none; stroke-linecap: butt; stroke-width: 1; fill: rgb(8%,10%,12%); fill-rule: evenodd;"/>
			<text x="20" y="402" style="font-family: Arial-Bold; font-size: 19px;fill: rgb(96%,96%,94%); stroke:none;" transform="translate(0,804) scale(1,-1)">Unity / Assets4ALL &gt; Import Delivery</text>
			<text x="480" y="402" style="font-family: Arial; font-size: 17px;fill: rgb(89%,72%,34%); stroke:none;" transform="translate(0,804) scale(1,-1)">ILUSTRACIÓN APROXIMADA · NO ES CAPTURA REAL</text>
			<text x="20" y="15" style="font-family: Arial; font-size: 17px;fill: rgb(78%,80%,81%); stroke:none;" transform="translate(0,30) scale(1,-1)">Elige la carpeta de revisión y decide la primera vinculación.</text>
			<text x="40" y="339" style="font-family: Arial-Bold; font-size: 26px;fill: rgb(96%,96%,94%); stroke:none;" transform="translate(0,678) scale(1,-1)">Entrega desde Assets4ALL</text>
			<text x="40" y="293" style="font-family: Arial; font-size: 21px;fill: rgb(96%,96%,94%); stroke:none;" transform="translate(0,586) scale(1,-1)">Carpeta</text>
			<rect x="230" y="276" width="723" height="42" rx="6" ry="6" style="stroke: none; stroke-linecap: butt; stroke-width: 1; fill: rgb(27%,30%,33%); fill-rule: evenodd;"/>
			<text x="245" y="289" style="font-family: Arial; font-size: 20px;fill: rgb(96%,96%,94%); stroke:none;" transform="translate(0,578) scale(1,-1)">… / Entregas / &lt;identificador&gt;_r1</text>
			<rect x="230" y="220" width="723" height="42" rx="6" ry="6" style="stroke: none; stroke-linecap: butt; stroke-width: 1; fill: rgb(32%,34%,37%); fill-rule: evenodd;"/>
			<text x="242" y="233" style="font-family: Arial; font-size: 19px;fill: rgb(96%,96%,94%); stroke:none;" transform="translate(0,466) scale(1,-1)">Seleccionar entrega…</text>
			<text x="40" y="172" style="font-family: Arial; font-size: 21px;fill: rgb(96%,96%,94%); stroke:none;" transform="translate(0,344) scale(1,-1)">Primera vinculación</text>
			<rect x="300" y="156" width="653" height="41" rx="6" ry="6" style="stroke: none; stroke-linecap: butt; stroke-width: 1; fill: rgb(27%,30%,33%); fill-rule: evenodd;"/>
			<text x="315" y="170" style="font-family: Arial; font-size: 20px;fill: rgb(96%,96%,94%); stroke:none;" transform="translate(0,340) scale(1,-1)">Crear artículo nuevo  /  artículo existente</text>
			<rect x="230" y="89" width="723" height="42" rx="6" ry="6" style="stroke: none; stroke-linecap: butt; stroke-width: 1; fill: rgb(39%,46%,29%); fill-rule: evenodd;"/>
			<text x="242" y="102" style="font-family: Arial-Bold; font-size: 19px;fill: rgb(96%,96%,94%); stroke:none;" transform="translate(0,204) scale(1,-1)">Importar o actualizar</text>
			<text x="40" y="49" style="font-family: Arial; font-size: 19px;fill: rgb(89%,72%,34%); stroke:none;" transform="translate(0,98) scale(1,-1)">Ejemplo: &lt;identificador&gt;_r1 contiene GLB + tres JSON.</text>
			<circle cx="208" cy="111" r="15" style="stroke: none; stroke-linecap: butt; stroke-width: 1; fill: rgb(89%,72%,34%); fill-rule: evenodd;"/>
			<text x="202.716552734375" y="105" style="font-family: Arial-Bold; font-size: 19px;fill: rgb(14%,15%,17%); stroke:none;" transform="translate(0,210) scale(1,-1)">1</text>
		</g>
	</g>
</svg>
